<?xml version="1.0" encoding="UTF-8" standalone="no"?>
<svg
   width="175"
   height="100"
   viewBox="0 0 175 100"
   version="1.1"
   xml:space="preserve"
   style="clip-rule:evenodd;fill-rule:evenodd"
   id="svg9"
   sodipodi:docname="mgnifylogo.svg"
   inkscape:version="1.4.3 (0d15f75, 2025-12-25)"
   xmlns:inkscape="http://www.inkscape.org/namespaces/inkscape"
   xmlns:sodipodi="http://sodipodi.sourceforge.net/DTD/sodipodi-0.dtd"
   xmlns="http://www.w3.org/2000/svg"
   xmlns:svg="http://www.w3.org/2000/svg"><defs
   id="defs9"><rect
   x="171.53894"
   y="7.1873856"
   width="41.686836"
   height="24.916271"
   id="rect10" />
            
            
            
            
            
            
        <rect
   x="171.53894"
   y="7.1873856"
   width="41.686836"
   height="24.916271"
   id="rect10-2" /><rect
   x="171.53894"
   y="7.1873856"
   width="41.686836"
   height="24.916271"
   id="rect10-22" /></defs><sodipodi:namedview
   id="namedview9"
   pagecolor="#ffffff"
   bordercolor="#000000"
   borderopacity="0.25"
   inkscape:showpageshadow="2"
   inkscape:pageopacity="0.0"
   inkscape:pagecheckerboard="0"
   inkscape:deskcolor="#d1d1d1"
   inkscape:zoom="2.0869897"
   inkscape:cx="129.37294"
   inkscape:cy="30.905759"
   inkscape:window-width="2560"
   inkscape:window-height="1410"
   inkscape:window-x="0"
   inkscape:window-y="30"
   inkscape:window-maximized="0"
   inkscape:current-layer="svg9" />
    <g
   id="g4179"
   transform="translate(2.2202603,12.853467)">
        <path
   d="m 10.187826,67.6524 v -50.108 h 15.142 l 9.092,34.18 8.989,-34.18 h 15.176 v 50.108 h -9.4 v -39.444 l -9.946,39.444 h -9.741 l -9.912,-39.444 v 39.444 z"
   style="fill:#1a1c1a;fill-rule:nonzero"
   id="path1" />
        
        
        <g
   id="g10"><path
     d="m 90.86244,49.2294 0.023,-8.443 h 15.68 v 19.961 c -2.119,2.051 -5.19,3.857 -9.212,5.418 -4.022,1.561 -8.095,2.341 -12.219,2.341 -5.241,0 -9.81,-1.099 -13.706,-3.298 -3.896,-2.199 -6.825,-5.344 -8.784,-9.434 -1.96,-4.09 -2.94,-8.539 -2.94,-13.347 0,-5.218 1.094,-9.855 3.282,-13.911 2.187,-4.056 5.389,-7.166 9.604,-9.331 3.213,-1.664 7.212,-2.495 11.997,-2.495 6.221,0 14.578,3.913 14.578,3.913 l -7.28,6.87 c 0,0 -4.381,-2.136 -7.298,-2.136 -4.42,0 -7.935,1.402 -10.544,4.204 -2.609,2.803 -3.914,6.962 -3.914,12.476 0,5.947 1.322,10.408 3.965,13.381 2.643,2.974 6.107,4.461 10.391,4.461 2.119,0 4.244,-0.416 6.374,-1.248 2.131,-0.832 3.959,-1.84 5.486,-3.025 v -6.357 z"
     style="fill:#1a1c1a;fill-rule:nonzero"
     id="path2" /><g
     id="ellipse8161"
     transform="translate(-2,6)">
            <path
   d="M 79.955,26.157 Z"
   style="fill:#333333;fill-opacity:0.96;stroke:#ffffff;stroke-width:0.78px"
   id="path7" />
        </g><g
     transform="matrix(0.850731,0,0,1.02684,19.3386,1.38969)"
     id="g7">
            <rect
   x="82.300003"
   y="38.321999"
   width="27.9"
   height="8.467"
   style="fill:#1a1c1a"
   id="rect7" />
        </g><g
     id="g8171"
     transform="matrix(-0.282039,0,0,0.282039,129.979,-14.721)">
            <g
   id="rect8173"
   transform="rotate(24.189512)">
                <rect
   x="151.73801"
   y="6.8210001"
   width="15.036"
   height="131.925"
   style="fill:#1a1c1a;stroke:#ffffff;stroke-width:0.78px"
   id="rect8" />
            </g>
            <g
   id="rect8175"
   transform="matrix(0.900702,0.434438,-0.402871,0.915257,0,0)">
                <rect
   x="144.088"
   y="33.443001"
   width="28.964001"
   height="86.68"
   style="fill:#1a1c1a;stroke:#ffffff;stroke-width:0.98px"
   id="rect9" />
            </g>
            <circle
   id="circle8177"
   cx="143.08"
   cy="132.429"
   r="22.552999"
   style="fill:#1a1c1a;stroke:#ffffff;stroke-width:0.78px" />
        </g></g>
    </g>
<g
   id="g11"
   transform="matrix(1.1123629,0,0,1.1284436,-17.669744,6.1544359)"><text
     xml:space="preserve"
     id="text9"
     style="font-style:normal;font-variant:normal;font-weight:normal;font-stretch:normal;font-size:12px;font-family:sans-serif;-inkscape-font-specification:'sans-serif, Normal';font-variant-ligatures:normal;font-variant-caps:normal;font-variant-numeric:normal;font-variant-east-asian:normal;writing-mode:lr-tb;direction:ltr;white-space:pre;shape-inside:url(#rect10);display:inline;fill:#3f7cad;fill-opacity:1"
     transform="matrix(3.9065134,0,0,3.4113577,-557.03424,-23.67767)"><tspan
       x="171.53906"
       y="18.135464"
       id="tspan2">.</tspan></text><text
     xml:space="preserve"
     id="text9-5"
     style="font-style:normal;font-variant:normal;font-weight:normal;font-stretch:normal;font-size:12px;font-family:sans-serif;-inkscape-font-specification:'sans-serif, Normal';font-variant-ligatures:normal;font-variant-caps:normal;font-variant-numeric:normal;font-variant-east-asian:normal;writing-mode:lr-tb;direction:ltr;white-space:pre;shape-inside:url(#rect10-2);clip-rule:evenodd;display:inline;fill:#3f7cad;fill-opacity:1;fill-rule:evenodd"
     transform="matrix(3.9065134,0,0,3.4113577,-546.80709,-30.877796)"><tspan
       x="171.53906"
       y="18.135464"
       id="tspan3">p</tspan></text><text
     xml:space="preserve"
     id="text9-1"
     style="font-style:normal;font-variant:normal;font-weight:normal;font-stretch:normal;font-size:12px;font-family:sans-serif;-inkscape-font-specification:'sans-serif, Normal';font-variant-ligatures:normal;font-variant-caps:normal;font-variant-numeric:normal;font-variant-east-asian:normal;writing-mode:lr-tb;direction:ltr;white-space:pre;shape-inside:url(#rect10-22);clip-rule:evenodd;display:inline;fill:#ffd744;fill-opacity:1;fill-rule:evenodd"
     transform="matrix(3.9065134,0,0,3.4113577,-530.68095,-21.024232)"><tspan
       x="171.53906"
       y="18.135464"
       id="tspan4">y</tspan></text></g></svg>
